<svg width="158" height="48" viewBox="0 0 158 48" fill="none" xmlns="http://www.w3.org/2000/svg">
<path d="M19.4318 17.1818C19.2614 15.7424 18.5701 14.625 17.358 13.8295C16.1458 13.0341 14.6591 12.6364 12.8977 12.6364C11.6098 12.6364 10.483 12.8447 9.51705 13.2614C8.56061 13.678 7.8125 14.2509 7.27273 14.9801C6.74242 15.7093 6.47727 16.5379 6.47727 17.4659C6.47727 18.2424 6.66193 18.91 7.03125 19.4688C7.41004 20.018 7.89299 20.4773 8.48011 20.8466C9.06723 21.2064 9.68277 21.5047 10.3267 21.7415C10.9706 21.9687 11.5625 22.1534 12.1023 22.2955L15.0568 23.0909C15.8144 23.2898 16.6572 23.5644 17.5852 23.9148C18.5227 24.2652 19.4176 24.7434 20.2699 25.3494C21.1316 25.946 21.8419 26.7131 22.4006 27.6506C22.9593 28.5881 23.2386 29.7386 23.2386 31.1023C23.2386 32.6742 22.8267 34.0947 22.0028 35.3636C21.1884 36.6326 19.9953 37.6411 18.4233 38.3892C16.8608 39.1373 14.9621 39.5114 12.7273 39.5114C10.6439 39.5114 8.83996 39.1752 7.31534 38.5028C5.80019 37.8305 4.60701 36.893 3.7358 35.6903C2.87405 34.4877 2.38636 33.0909 2.27273 31.5H5.90909C6.00379 32.5985 6.37311 33.5076 7.01705 34.2273C7.67045 34.9375 8.49432 35.4678 9.48864 35.8182C10.4924 36.1591 11.572 36.3295 12.7273 36.3295C14.072 36.3295 15.2794 36.1117 16.3494 35.6761C17.4195 35.2311 18.267 34.6155 18.892 33.8295C19.517 33.0341 19.8295 32.1061 19.8295 31.0455C19.8295 30.0795 19.5597 29.2936 19.0199 28.6875C18.4801 28.0814 17.7699 27.589 16.8892 27.2102C16.0085 26.8314 15.0568 26.5 14.0341 26.2159L10.4545 25.1932C8.18182 24.5398 6.38258 23.607 5.05682 22.3949C3.73106 21.1828 3.06818 19.5966 3.06818 17.6364C3.06818 16.0076 3.50852 14.5871 4.3892 13.375C5.27936 12.1534 6.47254 11.2064 7.96875 10.5341C9.47443 9.85227 11.1553 9.51136 13.0114 9.51136C14.8864 9.51136 16.553 9.84754 18.0114 10.5199C19.4697 11.1828 20.625 12.0919 21.4773 13.2472C22.339 14.4025 22.7936 15.714 22.8409 17.1818H19.4318ZM29.0305 39V9.90909H46.5874V13.0341H32.5533V22.8636H45.6783V25.9886H32.5533V35.875H46.8146V39H29.0305Z" fill="white"/>
<path d="M58.3068 11.4886C58.3106 10.9167 58.125 10.4792 57.75 10.1761C57.3788 9.87311 56.8598 9.72159 56.1932 9.72159C55.7159 9.72159 55.2898 9.79735 54.9148 9.94886C54.5436 10.0966 54.2405 10.3011 54.0057 10.5625C53.7746 10.8201 53.6326 11.1136 53.5795 11.4432C53.5303 11.7197 53.5549 11.9583 53.6534 12.1591C53.7557 12.3598 53.9015 12.5284 54.0909 12.6648C54.2841 12.7973 54.4962 12.9091 54.7273 13C54.9583 13.0871 55.1818 13.1591 55.3977 13.2159L56.4886 13.5114C56.8409 13.6023 57.1989 13.7254 57.5625 13.8807C57.9261 14.036 58.2538 14.2405 58.5455 14.4943C58.8371 14.7481 59.0549 15.0625 59.1989 15.4375C59.3428 15.8125 59.3712 16.2614 59.2841 16.7841C59.1705 17.4432 58.9034 18.0284 58.483 18.5398C58.0625 19.0511 57.5076 19.4545 56.8182 19.75C56.1288 20.0455 55.3295 20.1932 54.4205 20.1932C53.5492 20.1932 52.8163 20.0549 52.2216 19.7784C51.6307 19.5019 51.197 19.1098 50.9205 18.6023C50.6439 18.0909 50.5455 17.4848 50.625 16.7841H52.392C52.3504 17.2045 52.4261 17.5549 52.6193 17.8352C52.8163 18.1117 53.0928 18.3182 53.4489 18.4545C53.8049 18.5871 54.2083 18.6534 54.6591 18.6534C55.1591 18.6534 55.6155 18.5758 56.0284 18.4205C56.4413 18.2614 56.7822 18.0417 57.0511 17.7614C57.3201 17.4773 57.4848 17.1458 57.5455 16.767C57.6061 16.4223 57.5568 16.1402 57.3977 15.9205C57.2424 15.7008 57.0076 15.5189 56.6932 15.375C56.3826 15.2311 56.0284 15.1042 55.6307 14.9943L54.3182 14.6193C53.428 14.3655 52.7538 13.9924 52.2955 13.5C51.8371 13.0076 51.6723 12.3561 51.8011 11.5455C51.9148 10.875 52.1951 10.2898 52.642 9.78977C53.089 9.28977 53.6458 8.90151 54.3125 8.625C54.9792 8.3447 55.7027 8.20455 56.483 8.20455C57.2708 8.20455 57.9413 8.3447 58.4943 8.625C59.0473 8.9053 59.4564 9.29167 59.7216 9.78409C59.9867 10.2765 60.0795 10.8447 60 11.4886H58.3068ZM60.848 20L62.7798 8.36364H64.5355L63.6946 13.4205H69.4957L70.3366 8.36364H72.098L70.1662 20H68.4048L69.2457 14.9261H63.4446L62.6037 20H60.848ZM76.4105 8.36364L74.4787 20H72.723L74.6548 8.36364H76.4105ZM79.9844 8.36364L81.6605 17.8409H81.7912L86.5923 8.36364H88.4901L82.3707 20H80.3423L78.0866 8.36364H79.9844ZM88.0341 20H86.1705L92.2898 8.36364H94.3182L96.5739 20H94.7102L93.0114 10.4773H92.9205L88.0341 20ZM89.1023 15.4432H95.1477L94.8977 16.9205H88.8523L89.1023 15.4432ZM100.186 8.36364H102.317L104.533 17.4091H104.669L109.862 8.36364H111.993L110.061 20H108.391L109.794 11.5795H109.686L104.857 19.983H103.464L101.442 11.5739H101.334L99.9247 20H98.2543L100.186 8.36364ZM50.5511 39L52.483 27.3636H59.7784L59.5284 28.875H53.9886L53.3977 32.4205H58.5568L58.3068 33.9261H53.1477L52.5568 37.4886H58.1648L57.9148 39H50.5511ZM71.5156 27.3636L69.5838 39H67.9702L63.4759 30.4659H63.3736L61.9474 39H60.1918L62.1236 27.3636H63.7486L68.2486 35.9091H68.3565L69.777 27.3636H71.5156ZM73.2528 28.875L73.5028 27.3636H82.5085L82.2585 28.875H78.6278L76.946 39H75.196L76.8778 28.875H73.2528ZM82.5668 39L84.4986 27.3636H91.794L91.544 28.875H86.0043L85.4134 32.4205H90.5724L90.3224 33.9261H85.1634L84.5724 37.4886H90.1804L89.9304 39H82.5668ZM92.2074 39L94.1392 27.3636H98.2869C99.1884 27.3636 99.91 27.5189 100.452 27.8295C100.997 28.1364 101.372 28.5644 101.577 29.1136C101.785 29.6591 101.83 30.2917 101.713 31.0114C101.592 31.7235 101.336 32.3485 100.946 32.8864C100.56 33.4242 100.043 33.8447 99.3949 34.1477C98.7509 34.447 97.9782 34.5966 97.0767 34.5966H93.9347L94.196 33.0852H97.179C97.7509 33.0852 98.2282 33.0038 98.6108 32.8409C98.9934 32.678 99.2926 32.4413 99.5085 32.1307C99.7282 31.8201 99.8722 31.447 99.9403 31.0114C100.012 30.5682 99.9915 30.1875 99.8778 29.8693C99.7642 29.5473 99.5426 29.3011 99.2131 29.1307C98.8835 28.9564 98.4309 28.8693 97.8551 28.8693H95.6506L93.9631 39H92.2074ZM98.821 33.75L100.827 39H98.8267L96.8722 33.75H98.821ZM102.567 39L104.499 27.3636H108.646C109.548 27.3636 110.268 27.5284 110.805 27.858C111.347 28.1875 111.718 28.6364 111.919 29.2045C112.124 29.7727 112.167 30.4148 112.05 31.1307C111.929 31.8466 111.671 32.4905 111.277 33.0625C110.887 33.6307 110.366 34.0814 109.714 34.4148C109.063 34.7443 108.288 34.9091 107.391 34.9091H104.533L104.777 33.4205H107.47C108.042 33.4205 108.523 33.322 108.913 33.125C109.307 32.9242 109.616 32.6515 109.839 32.3068C110.063 31.9583 110.209 31.5663 110.277 31.1307C110.349 30.6875 110.33 30.2973 110.22 29.9602C110.11 29.6193 109.893 29.3523 109.567 29.1591C109.245 28.9659 108.794 28.8693 108.214 28.8693H106.01L104.322 39H102.567ZM112.77 39L114.702 27.3636H118.849C119.751 27.3636 120.473 27.5189 121.014 27.8295C121.56 28.1364 121.935 28.5644 122.139 29.1136C122.348 29.6591 122.393 30.2917 122.276 31.0114C122.154 31.7235 121.899 32.3485 121.509 32.8864C121.122 33.4242 120.605 33.8447 119.957 34.1477C119.313 34.447 118.541 34.5966 117.639 34.5966H114.497L114.759 33.0852H117.741C118.313 33.0852 118.791 33.0038 119.173 32.8409C119.556 32.678 119.855 32.4413 120.071 32.1307C120.291 31.8201 120.435 31.447 120.503 31.0114C120.575 30.5682 120.554 30.1875 120.44 29.8693C120.327 29.5473 120.105 29.3011 119.776 29.1307C119.446 28.9564 118.993 28.8693 118.418 28.8693H116.213L114.526 39H112.77ZM119.384 33.75L121.389 39H119.389L117.435 33.75H119.384ZM126.817 27.3636L124.885 39H123.129L125.061 27.3636H126.817ZM135.197 30.4886C135.201 29.9167 135.016 29.4792 134.641 29.1761C134.269 28.8731 133.75 28.7216 133.084 28.7216C132.607 28.7216 132.18 28.7973 131.805 28.9489C131.434 29.0966 131.131 29.3011 130.896 29.5625C130.665 29.8201 130.523 30.1136 130.47 30.4432C130.421 30.7197 130.446 30.9583 130.544 31.1591C130.646 31.3598 130.792 31.5284 130.982 31.6648C131.175 31.7973 131.387 31.9091 131.618 32C131.849 32.0871 132.072 32.1591 132.288 32.2159L133.379 32.5114C133.732 32.6023 134.089 32.7254 134.453 32.8807C134.817 33.036 135.144 33.2405 135.436 33.4943C135.728 33.7481 135.946 34.0625 136.089 34.4375C136.233 34.8125 136.262 35.2614 136.175 35.7841C136.061 36.4432 135.794 37.0284 135.374 37.5398C134.953 38.0511 134.398 38.4545 133.709 38.75C133.019 39.0455 132.22 39.1932 131.311 39.1932C130.44 39.1932 129.707 39.0549 129.112 38.7784C128.521 38.5019 128.088 38.1098 127.811 37.6023C127.535 37.0909 127.436 36.4848 127.516 35.7841H129.283C129.241 36.2045 129.317 36.5549 129.51 36.8352C129.707 37.1117 129.983 37.3182 130.339 37.4545C130.696 37.5871 131.099 37.6534 131.55 37.6534C132.05 37.6534 132.506 37.5758 132.919 37.4205C133.332 37.2614 133.673 37.0417 133.942 36.7614C134.211 36.4773 134.375 36.1458 134.436 35.767C134.497 35.4223 134.447 35.1402 134.288 34.9205C134.133 34.7008 133.898 34.5189 133.584 34.375C133.273 34.2311 132.919 34.1042 132.521 33.9943L131.209 33.6193C130.319 33.3655 129.644 32.9924 129.186 32.5C128.728 32.0076 128.563 31.3561 128.692 30.5455C128.805 29.875 129.086 29.2898 129.533 28.7898C129.98 28.2898 130.536 27.9015 131.203 27.625C131.87 27.3447 132.593 27.2045 133.374 27.2045C134.161 27.2045 134.832 27.3447 135.385 27.625C135.938 27.9053 136.347 28.2917 136.612 28.7841C136.877 29.2765 136.97 29.8447 136.891 30.4886H135.197ZM137.739 39L139.67 27.3636H146.966L146.716 28.875H141.176L140.585 32.4205H145.744L145.494 33.9261H140.335L139.744 37.4886H145.352L145.102 39H137.739ZM155.135 30.4886C155.139 29.9167 154.953 29.4792 154.578 29.1761C154.207 28.8731 153.688 28.7216 153.021 28.7216C152.544 28.7216 152.118 28.7973 151.743 28.9489C151.372 29.0966 151.069 29.3011 150.834 29.5625C150.603 29.8201 150.461 30.1136 150.408 30.4432C150.358 30.7197 150.383 30.9583 150.482 31.1591C150.584 31.3598 150.73 31.5284 150.919 31.6648C151.112 31.7973 151.324 31.9091 151.555 32C151.786 32.0871 152.01 32.1591 152.226 32.2159L153.317 32.5114C153.669 32.6023 154.027 32.7254 154.391 32.8807C154.754 33.036 155.082 33.2405 155.374 33.4943C155.665 33.7481 155.883 34.0625 156.027 34.4375C156.171 34.8125 156.199 35.2614 156.112 35.7841C155.999 36.4432 155.732 37.0284 155.311 37.5398C154.891 38.0511 154.336 38.4545 153.646 38.75C152.957 39.0455 152.158 39.1932 151.249 39.1932C150.377 39.1932 149.644 39.0549 149.05 38.7784C148.459 38.5019 148.025 38.1098 147.749 37.6023C147.472 37.0909 147.374 36.4848 147.453 35.7841H149.22C149.179 36.2045 149.254 36.5549 149.447 36.8352C149.644 37.1117 149.921 37.3182 150.277 37.4545C150.633 37.5871 151.036 37.6534 151.487 37.6534C151.987 37.6534 152.444 37.5758 152.857 37.4205C153.269 37.2614 153.61 37.0417 153.879 36.7614C154.148 36.4773 154.313 36.1458 154.374 35.767C154.434 35.4223 154.385 35.1402 154.226 34.9205C154.071 34.7008 153.836 34.5189 153.521 34.375C153.211 34.2311 152.857 34.1042 152.459 33.9943L151.146 33.6193C150.256 33.3655 149.582 32.9924 149.124 32.5C148.665 32.0076 148.5 31.3561 148.629 30.5455C148.743 29.875 149.023 29.2898 149.47 28.7898C149.917 28.2898 150.474 27.9015 151.141 27.625C151.807 27.3447 152.531 27.2045 153.311 27.2045C154.099 27.2045 154.769 27.3447 155.322 27.625C155.875 27.9053 156.285 28.2917 156.55 28.7841C156.815 29.2765 156.908 29.8447 156.828 30.4886H155.135Z" fill="white"/>
</svg>
