<svg width="40" height="40" viewBox="0 0 50 49" fill="none" xmlns="http://www.w3.org/2000/svg">
<path d="M20.6724 18L32.6922 25L20.6724 32V18Z" fill="#E68C2C"/>
<path d="M20.6724 18L32.6922 25L20.6724 32V18Z" fill="black" fill-opacity="0.2"/>
<path d="M48.7206 24.5C48.7206 37.4771 38.1827 48 25.1801 48C12.1775 48 1.63965 37.4771 1.63965 24.5C1.63965 11.5229 12.1775 1 25.1801 1C38.1827 1 48.7206 11.5229 48.7206 24.5Z" stroke="#E68C2C" stroke-width="2"/>
<path d="M48.7206 24.5C48.7206 37.4771 38.1827 48 25.1801 48C12.1775 48 1.63965 37.4771 1.63965 24.5C1.63965 11.5229 12.1775 1 25.1801 1C38.1827 1 48.7206 11.5229 48.7206 24.5Z" stroke="black" stroke-opacity="0.2" stroke-width="2"/>
</svg>
